<svg width="61" height="44" viewBox="0 0 61 44" fill="none" xmlns="http://www.w3.org/2000/svg">
<path d="M30 44V0H34.8413V19.5938H56.1587V0H61V44H56.1587V24.3203H34.8413V44H30Z" fill="url(#paint0_linear_7063_6)"/>
<path d="M30 44V0H14.9157C11.9101 0 9.43118 0.529948 7.47893 1.58985C5.52668 2.63542 4.07303 4.04622 3.11798 5.82227C2.16292 7.58398 1.68539 9.53906 1.68539 11.6875C1.68539 13.5781 2.01545 15.1393 2.67556 16.3711C3.32163 17.6029 4.17837 18.5768 5.24578 19.293C6.29915 20.0091 7.44382 20.5391 8.67977 20.8828V21.3125C7.35955 21.3984 6.0323 21.8711 4.69803 22.7305C3.36376 23.5898 2.24719 24.8216 1.34831 26.4258C0.449438 28.0299 -8.61056e-07 29.9922 -8.61056e-07 32.3125C-8.61056e-07 34.5182 0.491574 36.502 1.47472 38.2637C2.45786 40.0254 4.00983 41.4219 6.13062 42.4531C8.2514 43.4844 11.0112 44 14.4101 44H30ZM24.7753 39.2734H14.4101C10.9972 39.2734 8.57444 38.6003 7.14185 37.2539C5.69522 35.8932 4.97191 34.2461 4.97191 32.3125C4.97191 30.8229 5.3441 29.4479 6.08848 28.1875C6.83286 26.9128 7.89326 25.8958 9.26966 25.1367C10.6461 24.3633 12.2753 23.9766 14.1573 23.9766H24.7753V39.2734ZM24.7753 19.3359H15.0843C13.5112 19.3359 12.0927 19.0208 10.8286 18.3906C9.55056 17.7604 8.53933 16.8724 7.79494 15.7266C7.03652 14.5807 6.6573 13.2344 6.6573 11.6875C6.6573 9.75391 7.31741 8.11393 8.63764 6.76758C9.95786 5.4069 12.0506 4.72656 14.9157 4.72656H24.7753V19.3359Z" fill="url(#paint1_linear_7063_6)"/>
<defs>
<linearGradient id="paint0_linear_7063_6" x1="45.5" y1="0" x2="45.5" y2="44" gradientUnits="userSpaceOnUse">
<stop offset="0.0001" stop-color="#FF9E00"/>
<stop offset="1" stop-color="#7EB9F6"/>
</linearGradient>
<linearGradient id="paint1_linear_7063_6" x1="15" y1="0" x2="15" y2="44" gradientUnits="userSpaceOnUse">
<stop offset="0.0001" stop-color="#FF9E00"/>
<stop offset="1" stop-color="#7EB9F6"/>
</linearGradient>
</defs>
</svg>
